<?xml version="1.0" encoding="utf-8" ?>
<svg baseProfile="full" height="200mm" version="1.1" viewBox="0,0,200,200" width="200mm" xmlns="http://www.w3.org/2000/svg" xmlns:ev="http://www.w3.org/2001/xml-events" xmlns:xlink="http://www.w3.org/1999/xlink"><defs /><rect fill="#1a1a1a" height="200" width="200" x="0" y="0" /><text alignment-baseline="middle" fill="#e1ed5e" style="dominant-baseline: central; font-size:9.0px; font-family:Arial;" text-anchor="middle" x="100.0" y="100.0">2020</text><line stroke="#e1ed5e" stroke-width="0.3" x1="100.0" x2="100.0" y1="15.0" y2="10.0" /><path d="M 100.0 14.0 a86.0,86.0 0 0,1 42.35913384403234,11.155469271406648" fill="none" id="id13" stroke="none" /><text fill="#e1ed5e" style="font-size:6.75px; font-family:Arial;" text-anchor="middle"><textPath startOffset="22.145653131862478" xlink:href="#id13">January</textPath></text><path d="M 100.36049292484886 79.00309439819443 l 0.2740725607698676 -15.963352648163106 a36.965705231469826,36.965705231469826 0 0,0 0.634378476257489,0.01633933925301997 l -0.5480643510980979 15.95629559156004" fill="#ff8a0c" stroke="none" /><path d="M 101.44090949804482 79.04949213459386 l 0.8321160154691715 -12.098784240559628 a33.12736563161243,33.12736563161243 0 0,0 0.5670001109247065,0.04388939454489394 l -1.0396851211691114 12.08271707901968" fill="#ff5007" stroke="none" /><path d="M 101.80034050326958 79.07731436759882 l 0.9210158261989635 -10.703599990685579 a31.74315237314976,31.74315237314976 0 0,0 0.5425062498218814,0.05137590589975344 l -1.104621639405858 10.686212329280641" fill="#ff3b05" stroke="none" /><path d="M 102.51750503828377 79.15144685158666 l 0.9290761002164868 -7.69408289545622 a28.749973806545764,28.749973806545764 0 0,0 0.48946444075709183,0.06337097127549518 l -1.0610183628643703 7.677000327980328" fill="#ff0b01" stroke="none" /><path d="M 102.87502721639298 79.19773525538626 l 2.4929402243705585 -18.037673606761672 a39.20913013041401,39.20913013041401 0 0,0 0.6659482070704795,0.09787145325336918 l -2.8022135370487202 17.992221080209422" fill="#ffab0f" stroke="none" /><path d="M 103.58742460773223 79.30868818359171 l 3.3161731422411833 -19.126805445727832 a40.41215317444321,40.41215317444321 0 0,0 0.6825136701614064,0.12437672642998147 l -3.6440215459536436 19.067060545366488" fill="#ffbc11" stroke="none" /><path d="M 103.94208987418118 79.37332000966035 l 2.108690865872719 -11.03356165819111 a32.23325687558688,32.23325687558688 0 0,0 0.5425985518239719,0.10853490672351392 l -2.2977859032276475 10.995737354804737" fill="#ff4206" stroke="none" /><path d="M 104.64783097203109 79.52079915486377 l 2.366608370167654 -10.427713147508108 a31.69289655165807,31.69289655165807 0 0,0 0.5295246835630901,0.12496638349992702 l -2.5452652074706292 10.385550620361952" fill="#ff3a05" stroke="none" /><path d="M 104.9986988182912 79.60360301121754 l 1.9631438795115888 -8.010296952898814 a29.247350554286136,29.247350554286136 0 0,0 0.48661283194518584,0.12369507899578946 l -2.100362004682169 7.975416642067757" fill="#ff1302" stroke="none" /><path d="M 105.3480935250658 79.69241777938227 l 5.263082022913176 -19.9847797001361 a41.66619103857515,41.66619103857515 0 0,0 0.6901083902583175,0.1880921105406048 l -5.605371814106186 19.891487095451353" fill="#ffce13" stroke="none" /><path d="M 105.69591212413111 79.78721728523813 l 3.166404292893214 -11.236451785867917 a32.67407233497321,32.67407233497321 0 0,0 0.5385620473081042,0.15676756288401275 l -3.3588263525829225 11.180440528681387" fill="#ff4906" stroke="none" /><path d="M 106.04205211174951 79.88797359093562 l 5.039799971687028 -16.775854999638856 a38.51653204043325,38.51653204043325 0 0,0 0.6315965998772939,0.19567024113943046 l -5.327037204435952 16.686868170692776" fill="#ffa10e" stroke="none" /><line stroke="#e1ed5e" stroke-width="0.3" x1="143.13028292997686" x2="145.6673583964461" y1="26.7553504044142" y2="22.446841604673864" /><path d="M 143.63769802327073 25.89364864446614 a86.0,86.0 0 0,1 29.32050498858742,28.57503671076993" fill="none" id="id14" stroke="none" /><text fill="#e1ed5e" style="font-size:6.75px; font-family:Arial;" text-anchor="middle"><textPath startOffset="20.669276256404974" xlink:href="#id14">February</textPath></text><path d="M 111.27062007382361 82.28071324371311 l 3.783282412903182 -5.947948339589969 a28.04920671183741,28.04920671183741 0 0,0 0.4040613349582857,0.2619076755894062 l -3.8848293801184752 5.882126822296668" fill="#ff0000" stroke="none" /><path d="M 111.5731344415666 82.4767994020092 l 3.9979686179360785 -6.053434048510249 a28.254503211775766,28.254503211775766 0 0,0 0.4024298470770161,0.2707727609868598 l -4.101294753110095 5.983911613466271" fill="#ff0300" stroke="none" /><path d="M 111.8722381534696 82.67804972795209 l 7.109423061727256 -10.372860714742355 a33.57537815248769,33.57537815248769 0 0,0 0.4726212665510775,0.32992634966995815 l -7.286439419452094 10.24928954926727" fill="#ff5708" stroke="none" /><path d="M 112.45986205192187 83.09580414077388 l 7.506984426906589 -10.18466613320295 a33.65236102198436,33.65236102198436 0 0,0 0.46207417698976283,0.34674907679997746 l -7.680711592807119 10.054298029138957" fill="#ff5808" stroke="none" /><path d="M 113.03279911837588 83.53348406188908 l 8.636268591316076 -10.911643240491742 a34.91578576254757,34.91578576254757 0 0,0 0.46678952167981086,0.3760125963687599 l -8.822308883351146 10.761782350329575" fill="#ff6b09" stroke="none" /><path d="M 113.59037401385872 83.9905735841838 l 10.980976978242762 -12.935563269096109 a37.96793011788668,37.96793011788668 0 0,0 0.4932585927185339,0.4260650243071177 l -11.201415050724156 12.74515411232427" fill="#ff990e" stroke="none" /><path d="M 113.86319453409587 84.22622945171908 l 9.889052839016683 -11.251926822409578 a35.97996072323703,35.97996072323703 0 0,0 0.4604320847550049,0.41172120935304873 l -10.080749950595063 11.080510083173143" fill="#ff7b0b" stroke="none" /><path d="M 114.39649973595853 84.71141617570332 l 10.784812691787783 -11.453097342536655 a36.73167580185172,36.73167580185172 0 0,0 0.4553459929284442,0.4362111608823748 l -10.979831170581539 11.266274051348699" fill="#ff870c" stroke="none" /><path d="M 115.6541949942343 86.00192230759917 l 11.075487433863723 -9.903769158205554 a35.85769381285995,35.85769381285995 0 0,0 0.40636830473434205,0.46237253478686974 l -11.243866802556655 9.712184345607387" fill="#ff7a0b" stroke="none" /><path d="M 116.35404254752997 86.82634096563983 l 14.57878981295498 -11.74364109493402 a39.72042249995825,39.72042249995825 0 0,0 0.42318056677814175,0.5346748219057559 l -14.77823681037468 11.491646329113586" fill="#ffb210" stroke="none" /><path d="M 116.7966241395341 87.39550010848427 l 12.456041856145283 -9.347246025167857 a36.573181658770295,36.573181658770295 0 0,0 0.37252046162880154,0.50539555082564 l -12.61466433735791 9.132044165073342" fill="#ff840c" stroke="none" /><path d="M 117.01052211995028 87.68569379921539 l 12.467939541343274 -9.025826727852364 a36.39204549524868,36.39204549524868 0 0,0 0.3619880398842005,0.5091815111013271 l -12.621042679757435 8.810467990041532" fill="#ff820b" stroke="none" /><path d="M 117.62189284568427 88.57770195909679 l 11.779859998302385 -7.635562930668742 a35.038052672924664,35.038052672924664 0 0,0 0.3228211100995772,0.5075284042377186 l -11.909198800027852 7.432220851752352" fill="#ff6d0a" stroke="none" /><line stroke="#e1ed5e" stroke-width="0.3" x1="172.87174338648825" x2="177.1583165268699" y1="56.24261187166439" y2="53.66864786411523" /><path d="M 173.72905801456457 55.72781907015455 a86.0,86.0 0 0,1 12.242430191666344,42.057860355516425" fill="none" id="id15" stroke="none" /><text fill="#e1ed5e" style="font-size:6.75px; font-family:Arial;" text-anchor="middle"><textPath startOffset="22.145653131862474" xlink:href="#id15">March</textPath></text><path d="M 118.53625476483649 90.13048839642627 l 9.097459410466486 -4.843884719634299 a31.306647704379532,31.306647704379532 0 0,0 0.2485031218935306,0.47653750259565975 l -9.179270601334961 4.687000973934141" fill="#ff3404" stroke="none" /><path d="M 119.16976305983485 91.42560881287824 l 15.150138496969324 -6.776464247712356 a37.596600982667375,37.596600982667375 0 0,0 0.25846073015355464,0.5914087310513148 l -15.264233109139848 6.515393446885192" fill="#ff930d" stroke="none" /><line stroke="#e1ed5e" stroke-width="0.3" x1="184.99686870605535" x2="189.99668451229388" y1="99.2704041080226" y2="99.22748670261217" /><path d="M 185.99683186730306 99.26182062694052 a86.0,86.0 0 0,1 -10.086455211305974,41.156179273409016" fill="none" id="id16" stroke="none" /><text fill="#e1ed5e" style="font-size:6.75px; font-family:Arial;" text-anchor="middle"><textPath startOffset="21.40746469413373" xlink:href="#id16">April</textPath></text><line stroke="#e1ed5e" stroke-width="0.3" x1="174.33088141563837" x2="178.70328620479359" y1="141.23008692659167" y2="143.65538615756765" /><path d="M 175.20536237346943 141.71514677278685 a86.0,86.0 0 0,1 -30.301960400862466,31.631185727798858" fill="none" id="id17" stroke="none" /><text fill="#e1ed5e" style="font-size:6.75px; font-family:Arial;" text-anchor="middle"><textPath startOffset="22.145653131862474" xlink:href="#id17">May</textPath></text><line stroke="#e1ed5e" stroke-width="0.3" x1="143.1302829299769" x2="145.66735839644613" y1="173.24464959558577" y2="177.55315839532614" /><path d="M 143.63769802327073 174.10635135553383 a86.0,86.0 0 0,1 -40.68552437913181,11.842963189579606" fill="none" id="id18" stroke="none" /><text fill="#e1ed5e" style="font-size:6.75px; font-family:Arial;" text-anchor="middle"><textPath startOffset="21.407464694133747" xlink:href="#id18">June</textPath></text><line stroke="#e1ed5e" stroke-width="0.3" x1="101.45913802915013" x2="101.54496967792366" y1="184.9874750549273" y2="189.98673829345242" /><path d="M 101.47630435890484 185.9873277026323 a86.0,86.0 0 0,1 -42.54439059252881,-10.42667462771756" fill="none" id="id19" stroke="none" /><text fill="#e1ed5e" style="font-size:6.75px; font-family:Arial;" text-anchor="middle"><textPath startOffset="22.145653131862474" xlink:href="#id19">July</textPath></text><line stroke="#e1ed5e" stroke-width="0.3" x1="58.13341422392154" x2="55.67067388415222" y1="173.97424548756322" y2="178.32567169271397" /><path d="M 57.64086615596768 174.84453072859336 a86.0,86.0 0 0,1 -31.369924170532247,-30.572349798747897" fill="none" id="id20" stroke="none" /><text fill="#e1ed5e" style="font-size:6.75px; font-family:Arial;" text-anchor="middle"><textPath startOffset="22.145653131862474" xlink:href="#id20">August</textPath></text><line stroke="#e1ed5e" stroke-width="0.3" x1="26.387840678322732" x2="22.057713659400548" y1="142.50000000000003" y2="145.00000000000006" /><path d="M 25.521815274538298 143.00000000000003 a86.0,86.0 0 0,1 -11.493303480769221,-40.785679425670985" fill="none" id="id21" stroke="none" /><text fill="#e1ed5e" style="font-size:6.75px; font-family:Arial;" text-anchor="middle"><textPath startOffset="21.40746469413373" xlink:href="#id21">September</textPath></text><path d="M 79.407916724674 104.11899336999214 l -8.479635337608771 1.6961645535598988 a29.647611788903134,29.647611788903134 0 0,0 -0.09554113403496714,-0.499911585111365 l 8.507502763925896 -1.5503504034152193" fill="#ff1a02" stroke="none" /><path d="M 79.34024301695615 103.76489593502545 l -9.654939502028046 1.7594516002262566 a30.813945522640743,30.813945522640743 0 0,0 -0.09036583137124664,-0.5212061015641573 l 9.683720150891526 -1.5934524657415068" fill="#ff2c04" stroke="none" /><path d="M 79.13060592940153 102.33845913500099 l -20.377545940977402 2.2833465261799173 a41.505073760785706,41.505073760785706 0 0,0 -0.07326160877068118,-0.7087396072824342 l 20.41373994222975 -1.9332023966145517" fill="#ffcc13" stroke="none" /><line stroke="#e1ed5e" stroke-width="0.3" x1="15.003131293944662" x2="10.003315487706104" y1="100.72959589197737" y2="100.7725132973878" /><path d="M 14.003168132696942 100.73817937305945 a86.0,86.0 0 0,1 10.791469493833604,-42.45332614584628" fill="none" id="id22" stroke="none" /><text fill="#e1ed5e" style="font-size:6.75px; font-family:Arial;" text-anchor="middle"><textPath startOffset="22.145653131862435" xlink:href="#id22">October</textPath></text><path d="M 79.06263194458094 98.37931529534042 l -18.151984228388077 -1.4050783804488927 a39.20628398885545,39.20628398885545 0 0,0 0.05770115264661901,-0.6705748580670821 l 18.125189453043717 1.7164742858916553" fill="#ffab0f" stroke="none" /><path d="M 79.22317932658666 96.9465228501225 l -18.844605181272435 -2.769508012027571 a40.04702914017629,40.04702914017629 0 0,0 0.10579759147582381,-0.6792964313460189 l 18.794286097658343 3.09259262530504" fill="#ffb711" stroke="none" /><path d="M 79.64726062577567 94.8264132398404 l -19.853577595748714 -5.046701788028047 a41.484963809772786,41.484963809772786 0 0,0 0.18136933648440037,-0.688688912356013 l 19.76401877845959 5.386771204756845" fill="#ffcb12" stroke="none" /><path d="M 79.83685265289637 94.1308016681162 l -19.950234252049963 -5.80722243294237 a41.77825014522004,41.77825014522004 0 0,0 0.20635208804148172,-0.6868789887107084 l 19.847605844004853 6.148839025243802" fill="#ffcf13" stroke="none" /><path d="M 80.5471966667186 92.08871423366112 l -19.363124035385002 -7.874813976601032 a41.90318797637756,41.90318797637756 0 0,0 0.27670900970730217,-0.6640008909195317 l 19.22508918114122 8.206047376961827" fill="#ffd113" stroke="none" /><path d="M 81.63589988554816 89.8137432299009 l -19.85252878144951 -11.0118630612608 a43.70207098698798,43.70207098698798 0 0,0 0.3695252231788912,-0.6529156621340854 l 19.66057019324925 11.35103549349399" fill="#ffea16" stroke="none" /><line stroke="#e1ed5e" stroke-width="0.3" x1="26.387840678322718" x2="22.05771365940052" y1="57.49999999999999" y2="54.99999999999999" /><path d="M 25.521815274538284 56.99999999999999 a86.0,86.0 0 0,1 29.574782752854787,-30.34633250058573" fill="none" id="id23" stroke="none" /><text fill="#e1ed5e" style="font-size:6.75px; font-family:Arial;" text-anchor="middle"><textPath startOffset="21.40746469413373" xlink:href="#id23">November</textPath></text><path d="M 81.81346652052679 89.5 l -18.897500871237124 -10.910477215019943 a42.82095443003988,42.82095443003988 0 0,0 0.3730037296470945,-0.6334418793450499 l 18.70742343146025 11.233270262658566" fill="#ffde14" stroke="none" /><path d="M 84.10781606972428 86.27271002978789 l -15.55717354802867 -13.437915981066684 a41.55731584418769,41.55731584418769 0 0,0 0.4709610182140454,-0.5358671856059024 l 15.324201465856031 13.702995444483886" fill="#ffcc13" stroke="none" /><path d="M 84.34580500576568 86.00192230759919 l -46.962584982702936 -41.99423307720245 a84.0,84.0 0 0,0 0.9704091966325366,-1.066649697769369 l 46.234778085228534 42.79422035052948" fill="#4dd2ff" stroke="none" /><path d="M 86.13680546590413 84.22622945171909 l -40.33526208176288 -45.894124007111266 a82.09995078217825,82.09995078217825 0 0,0 1.0665976801827808,-0.9213016726751796 l 39.54148492181725 46.57976981225115" fill="#4ae5ff" stroke="none" /><path d="M 87.83215693770416 82.88440491214696 l -12.68987233367235 -17.8498946335608 a42.90094971169346,42.90094971169346 0 0,0 0.6038919680040009,-0.4215634942805476 l 12.381585274494583 18.065102943646476" fill="#ffdf14" stroke="none" /><line stroke="#e1ed5e" stroke-width="0.3" x1="56.869717070023135" x2="54.33264160355391" y1="26.7553504044142" y2="22.446841604673864" /><path d="M 56.362301976729285 25.89364864446614 a86.0,86.0 0 0,1 42.16139366436587,-11.88097634709845" fill="none" id="id24" stroke="none" /><text fill="#e1ed5e" style="font-size:6.75px; font-family:Arial;" text-anchor="middle"><textPath startOffset="22.145653131862474" xlink:href="#id24">December</textPath></text><path d="M 90.28995756902619 81.37971332152246 l -28.04205470228492 -53.7743373751383 a81.64681518481524,81.64681518481524 0 0,0 1.248312847125062,-0.6373974343232466 l 27.114814633446276 54.247792761134384" fill="#4aeaff" stroke="none" /><path d="M 92.592206182469 80.34994680014964 l -21.402701405651598 -56.773208272384025 a81.67349342998946,81.67349342998946 0 0,0 1.316152199953039,-0.48330931843031055 l 20.42496005404443 57.13224843982306" fill="#4aeaff" stroke="none" /><path d="M 95.00130118170881 79.60360301121753 l -14.215484496000649 -58.00402778966177 a80.72057634751937,80.72057634751937 0 0,0 1.3486787986632196,-0.3182845242225402 l 13.217673543597524 58.23950845753055" fill="#48f4ff" stroke="none" /><path d="M 97.48249496171623 79.15144685158666 l -7.253534003609558 -60.069666947387795 a81.50602154093106,81.50602154093106 0 0,0 1.3905086343555952,-0.15580939280300612 l 6.221289467653163 60.18533210069777" fill="#4aebff" stroke="none" /></svg>