<?xml version="1.0" encoding="utf-8" ?>
<svg baseProfile="full" height="200mm" version="1.1" viewBox="0,0,200,200" width="200mm" xmlns="http://www.w3.org/2000/svg" xmlns:ev="http://www.w3.org/2001/xml-events" xmlns:xlink="http://www.w3.org/1999/xlink"><defs /><rect fill="#1a1a1a" height="200" width="200" x="0" y="0" /><text alignment-baseline="middle" fill="#e1ed5e" style="dominant-baseline: central; font-size:9.0px; font-family:Arial;" text-anchor="middle" x="100.0" y="100.0">2019</text><line stroke="#e1ed5e" stroke-width="0.3" x1="100.0" x2="100.0" y1="15.0" y2="10.0" /><path d="M 100.0 14.0 a86.0,86.0 0 0,1 42.46469731375804,11.215312516191453" fill="none" id="id1" stroke="none" /><text fill="#e1ed5e" style="font-size:6.75px; font-family:Arial;" text-anchor="middle"><textPath startOffset="22.20632615414155" xlink:href="#id1">January</textPath></text><line stroke="#e1ed5e" stroke-width="0.3" x1="143.23703022742887" x2="145.7803849466894" y1="26.81831364943548" y2="22.513508569990506" /><path d="M 143.74570117128098 25.957352633546492 a86.0,86.0 0 0,1 28.547481713284135,27.462654790039103" fill="none" id="id2" stroke="none" /><text fill="#e1ed5e" style="font-size:6.75px; font-family:Arial;" text-anchor="middle"><textPath startOffset="19.985693538727396" xlink:href="#id2">February</textPath></text><line stroke="#e1ed5e" stroke-width="0.3" x1="172.23445277983987" x2="176.4835382374775" y1="55.19839476539836" y2="52.563006222186495" /><path d="M 173.08426987136738 54.67131705675599 a86.0,86.0 0 0,1 12.851231095245387,41.99856678651699" fill="none" id="id3" stroke="none" /><text fill="#e1ed5e" style="font-size:6.75px; font-family:Arial;" text-anchor="middle"><textPath startOffset="22.20632615414155" xlink:href="#id3">March</textPath></text><path d="M 119.34039704204932 91.81776055985345 l 28.717214083582835 -12.149239810069876 a52.181443402846426,52.181443402846426 0 0,0 0.3428527398365768,0.830245104349653 l -28.92208851030561 11.653120135266919" fill="#d9ff1c" stroke="none" /><line stroke="#e1ed5e" stroke-width="0.3" x1="184.98032266829074" x2="189.97916517819016" y1="98.17113171792111" y2="98.06355123074" /><path d="M 185.9800911702706 98.14961562048488 a86.0,86.0 0 0,1 -9.607161424134198,41.387399972396054" fill="none" id="id4" stroke="none" /><text fill="#e1ed5e" style="font-size:6.75px; font-family:Arial;" text-anchor="middle"><textPath startOffset="21.466115282336823" xlink:href="#id4">April</textPath></text><line stroke="#e1ed5e" stroke-width="0.3" x1="174.80103733775053" x2="179.2010983576182" y1="140.37084112569926" y2="142.7455964860345" /><path d="M 175.68104954172406 140.8457921977663 a86.0,86.0 0 0,1 -30.038265399797805,32.042727171017184" fill="none" id="id5" stroke="none" /><text fill="#e1ed5e" style="font-size:6.75px; font-family:Arial;" text-anchor="middle"><textPath startOffset="22.206326154141568" xlink:href="#id5">May</textPath></text><line stroke="#e1ed5e" stroke-width="0.3" x1="143.8653032363475" x2="146.44561519142675" y1="172.8068346515853" y2="177.08958963109032" /><path d="M 144.38136562736335 173.6633856474863 a86.0,86.0 0 0,1 -40.68145358897372,12.25698825130547" fill="none" id="id6" stroke="none" /><text fill="#e1ed5e" style="font-size:6.75px; font-family:Arial;" text-anchor="middle"><textPath startOffset="21.466115282336833" xlink:href="#id6">June</textPath></text><line stroke="#e1ed5e" stroke-width="0.3" x1="102.19456741930631" x2="102.32365962044197" y1="184.97166512339345" y2="189.96999836594603" /><path d="M 102.22038585953345 185.97133177190398 a86.0,86.0 0 0,1 -42.740103519485714,-10.115201625700543" fill="none" id="id7" stroke="none" /><text fill="#e1ed5e" style="font-size:6.75px; font-family:Arial;" text-anchor="middle"><textPath startOffset="22.20632615414155" xlink:href="#id7">July</textPath></text><line stroke="#e1ed5e" stroke-width="0.3" x1="58.666819895761336" x2="56.23545636021788" y1="174.27360380694188" y2="178.64263932499728" /><path d="M 58.180547188652646 175.14741091055294 a86.0,86.0 0 0,1 -31.652253787137756,-30.449443065178592" fill="none" id="id8" stroke="none" /><text fill="#e1ed5e" style="font-size:6.75px; font-family:Arial;" text-anchor="middle"><textPath startOffset="22.20632615414155" xlink:href="#id8">August</textPath></text><line stroke="#e1ed5e" stroke-width="0.3" x1="26.63291911575756" x2="22.317208475507996" y1="142.92168965132927" y2="145.44649492493687" /><path d="M 25.769776987707644 143.4266507060508 a86.0,86.0 0 0,1 -11.730757126820373,-40.83630448921669" fill="none" id="id9" stroke="none" /><text fill="#e1ed5e" style="font-size:6.75px; font-family:Arial;" text-anchor="middle"><textPath startOffset="21.46611528233685" xlink:href="#id9">September</textPath></text><path d="M 79.1416061653843 102.43462659150553 l -13.888671055440652 1.6211088993886578 a34.98296026418984,34.98296026418984 0 0,0 -0.06466466686361923,-0.5987145043003973 l 13.914518023805323 -1.3817980732034782" fill="#ff0b01" stroke="none" /><path d="M 79.10278846688536 102.07522291339032 l -32.70400725378493 3.2477110692587257 a53.864870570945556,53.864870570945556 0 0,0 -0.08368395946953248,-0.9234455194744295 l 32.755065809531544 -2.68428416123573" fill="#c1ff1e" stroke="none" /><line stroke="#e1ed5e" stroke-width="0.3" x1="15.007084014347285" x2="10.007500721073583" y1="101.09737516637583" y2="101.16192664675087" /><path d="M 14.007167355692545 101.11028546245083 a86.0,86.0 0 0,1 10.666146001902534,-42.60595125391555" fill="none" id="id10" stroke="none" /><text fill="#e1ed5e" style="font-size:6.75px; font-family:Arial;" text-anchor="middle"><textPath startOffset="22.20632615414155" xlink:href="#id10">October</textPath></text><path d="M 79.05617556472873 98.46500227214037 l -62.831473305813795 -4.604993183578899 a84.0,84.0 0 0,0 0.11810206472201168,-1.4411443311688865 l 62.742896757272284 5.685851431955563" fill="#4dd2ff" stroke="none" /><path d="M 79.26566170972629 96.67025291283419 l -44.174627880865685 -7.09404546476146 a65.74062169292084,65.74062169292084 0 0,0 0.18904541745422543,-1.1157567550623695 l 44.04597060189124 7.853388008139658" fill="#31ff3c" stroke="none" /><line stroke="#e1ed5e" stroke-width="0.3" x1="26.266209847984243" x2="21.928928074336255" y1="57.711370442889674" y2="55.22380399835377" /><path d="M 25.398753493254645 57.213857153982495 a86.0,86.0 0 0,1 29.58750427330803,-30.492523968695096" fill="none" id="id11" stroke="none" /><text fill="#e1ed5e" style="font-size:6.75px; font-family:Arial;" text-anchor="middle"><textPath startOffset="21.46611528233685" xlink:href="#id11">November</textPath></text><path d="M 81.78341655067845 89.55222093294921 l -20.205250750556104 -11.588341821804926 a44.29252721522165,44.29252721522165 0 0,0 0.38500820649516904,-0.6581038271440333 l 20.00278286959061 11.934425061302852" fill="#ffab0f" stroke="none" /><path d="M 84.31358615837235 86.03803664274999 l -15.361456633184392 -13.672729585735015 a41.56496740133177,41.56496740133177 0 0,0 0.48028588892952084,-0.5303436744008864 l 15.123827103638826 13.935126047405458" fill="#ff7e0b" stroke="none" /><path d="M 84.80347519578584 85.50635884689758 l -27.048292733515424 -25.79723020456141 a58.37789756025717,58.37789756025717 0 0,0 0.699800144085489,-0.7212055626494187 l 26.600228325726818 26.25899996276095" fill="#82ff25" stroke="none" /><path d="M 85.83668400450813 84.49514656593479 l -11.70157667262346 -12.809940222632337 a38.34997017670922,38.34997017670922 0 0,0 0.49122479064556973,-0.4410264672068511 l 11.479340894381918 13.009465698608468" fill="#ff4706" stroke="none" /><path d="M 87.51073957382395 83.11751280151077 l -19.105119935401735 -25.825543845575574 a53.12420151016724,53.12420151016724 0 0,0 0.7398295974578053,-0.537517666030184 l 18.65774502159015 26.150580746422424" fill="#cbff1d" stroke="none" /><path d="M 87.80319425747018 82.90503203632743 l -9.986609645511576 -13.997170698589272 a38.19456774034378,38.19456774034378 0 0,0 0.5384867688084892,-0.37724439397269766 l 9.744191737119426 14.166999935325913" fill="#ff4406" stroke="none" /><path d="M 88.39885842347998 82.49532879139004 l -11.071091961679773 -16.70489265485041 a41.04052184535237,41.04052184535237 0 0,0 0.5922205427696222,-0.38519671470347894 l 10.781904393125865 16.892988293713426" fill="#ff750a" stroke="none" /><path d="M 88.70189139769569 82.29822771554957 l -8.933957146288286 -13.997641602628855 a37.60570867886588,37.60570867886588 0 0,0 0.5486509000320693,-0.34356514326675297 l 8.691687093883974 14.149351087218538" fill="#ff3a05" stroke="none" /><path d="M 89.00827224532344 82.1063720568725 l -16.0098018124783 -26.062639420250523 a51.587169330044745,51.587169330044745 0 0,0 0.760635453382634,-0.4582743498548656 l 15.558804292878017 26.334360379564007" fill="#e2ff1b" stroke="none" /><line stroke="#e1ed5e" stroke-width="0.3" x1="56.762969772571076" x2="54.21961505331055" y1="26.818313649435495" y2="22.513508569990535" /><path d="M 56.25429882871897 25.957352633546506 a86.0,86.0 0 0,1 42.265352541879196,-11.944610805530505" fill="none" id="id12" stroke="none" /><text fill="#e1ed5e" style="font-size:6.75px; font-family:Arial;" text-anchor="middle"><textPath startOffset="22.20632615414155" xlink:href="#id12">December</textPath></text><path d="M 89.3179101791058 81.91981866633112 l -13.837906767905377 -23.42162140902025 a48.204044058645344,48.204044058645344 0 0,0 0.7180182138061874,-0.4159224943054063 l 13.432691821633869 23.656348060715704" fill="#ffe915" stroke="none" /><path d="M 91.56875222667455 80.76684994638697 l -11.366586423797278 -25.92917064754077 a49.31114934789724,49.31114934789724 0 0,0 0.7803283738254335,-0.3340958859960176 l 10.918574292181537 26.120986061499572" fill="#fffa17" stroke="none" /><path d="M 92.91201910852362 80.23233633223022 l -10.93962558024738 -30.50951214918095 a53.41150628121166,53.41150628121166 0 0,0 0.8681099182792577,-0.3028665047025639 l 10.412833657904837 30.693299507055723" fill="#c7ff1e" stroke="none" /><path d="M 93.25333710446033 80.11325718540243 l -9.802352109225197 -28.893818824587427 a51.51129091240347,51.51129091240347 0 0,0 0.8421290961284089,-0.2776367227130533 l 9.30354019085438 29.058269271559716" fill="#e3ff1b" stroke="none" /><path d="M 94.63758080256005 79.69619591428918 l -6.340235133879306 -24.006122474923785 a45.829266961268075,45.829266961268075 0 0,0 0.7644564216483064,-0.194876963210407 l 5.926069823545999 24.111702434303055" fill="#ffc412" stroke="none" /><path d="M 94.98787191387505 79.60689891045804 l -4.1477800470259 -16.876284153699817 a38.378522553857266,38.378522553857266 0 0,0 0.6428883411343401,-0.15215089945725702 l 3.8566680189290254 16.945180965297943" fill="#ff4706" stroke="none" /><path d="M 95.33964822691252 79.52364482259891 l -9.251230375070168 -40.647463584578276 a62.686947109523835,62.686947109523835 0 0,0 1.0542072129681785,-0.2304088648777843 l 8.55018043794847 40.800685947551926" fill="#4aff2c" stroke="none" /><path d="M 95.692805502759 79.44645832069477 l -5.642376614532333 -26.92490970431289 a48.50976511069521,48.50976511069521 0 0,0 0.8187376297185495,-0.16423106623781814 l 5.178072575346647 27.018044726627917" fill="#ffee16" stroke="none" /><path d="M 96.04723909329186 79.375362276772 l -2.5202822896606123 -13.150279111570802 a34.3896102830438,34.3896102830438 0 0,0 0.5823387238104993,-0.10641867956092257 l 2.29354844474722 13.191713272482462" fill="#ff0000" stroke="none" /><path d="M 96.40284397218896 79.31037775812273 l -3.2662045330202574 -18.78610141746296 a40.06792328804387,40.06792328804387 0 0,0 0.6805265717863256,-0.11229271532141571 l 2.942348755095046 18.839540395724" fill="#ff6409" stroke="none" /><path d="M 96.75951476605007 79.25152402106235 l -3.005250643928069 -19.242294377074792 a40.475559666588126,40.475559666588126 0 0,0 0.6893007462515701,-0.10158501195719079 l 2.67358091724785 19.29117387319295" fill="#ff6b09" stroke="none" /><path d="M 97.83486435360386 79.11191278185805 l -1.637615959519301 -15.798855396980397 a36.8835014365715,36.8835014365715 0 0,0 0.6320688281882502,-0.06002255133182796 l 1.3654220042408145 15.824703492827405" fill="#ff2d04" stroke="none" /><path d="M 98.19473922651362 79.07773832637324 l -3.3589023432962084 -38.92835583353551 a60.072997234076624,60.072997234076624 0 0,0 1.0309951217890752,-0.08002506415126331 l 2.688317032144799 38.980406159875244" fill="#6cff28" stroke="none" /></svg>